<svg xmlns="http://www.w3.org/2000/svg" width="200" height="200">
  <defs>
    <clipPath id="a">
      <path d="M0 0h200v200H0z"/>
    </clipPath>
  </defs>
  <g clip-path="url(#a)">
    <path fill="#fff" d="M0 0h200v200H0z"/>
    <path d="M81.159 93.576a14.683 14.683 0 0 0-.478 3.048 7.235 7.235 0 0 0 1.616 4.226 14.763 14.763 0 0 0 2.792 1.947c1.139.587 2.975 1.689 3.342 2.387a8.037 8.037 0 0 1 .882 2.939 12.06 12.06 0 0 1-.331 3.269 5.452 5.452 0 0 1-.735 1.946 3.457 3.457 0 0 1-2.681.882 2.328 2.328 0 0 1-1.359-.184 2.806 2.806 0 0 1-1.359-2.24 14.553 14.553 0 0 1 .037-1.764.763.763 0 0 0-.7-.845 2.863 2.863 0 0 0-1.028.147c-.332.11-.845.331-.845.845 0 .294-.037 1.029-.037 1.69 0 1.947 1.212 3.563 3.232 4.628a5.568 5.568 0 0 0 2.094.294 6.905 6.905 0 0 0 3.893-1.1 6.623 6.623 0 0 0 1.874-3.489 15.963 15.963 0 0 0 .513-4.115 10.881 10.881 0 0 0-1.175-4.151 17.279 17.279 0 0 0-4.078-3.159 7.789 7.789 0 0 1-2.424-1.617 2.914 2.914 0 0 1-.955-2.644 20.543 20.543 0 0 1 .441-2.278c.11-.7.184-1.249.441-1.468a5.027 5.027 0 0 1 2.351-.7 4.235 4.235 0 0 1 2.24.625 4.159 4.159 0 0 1 1.065 1.064 2.521 2.521 0 0 0 .845.735c.478 0 .881-.735.992-1.065a3.293 3.293 0 0 0 .184-.7 2.225 2.225 0 0 0-1.065-1.615 5.93 5.93 0 0 0-4.555-1.617 6.376 6.376 0 0 0-4.225 1.764 6.187 6.187 0 0 0-.804 2.315zM95.456 112.468a13.941 13.941 0 0 0 1.06 1.783 7.732 7.732 0 0 0 .83 1.272 4.744 4.744 0 0 0 3.4 1.3 8.492 8.492 0 0 0 2.926-.823c1.057-.494 2.4-3.42 2.623-5.666a23.108 23.108 0 0 0 .1-2.794c-.013-.772-.063-1.505-.076-2.24-.047-2.829-1.152-7.329-2.385-8.447-.969-.865-2.809-.981-4.058-.96a8.022 8.022 0 0 0-2.738 1.075c-1.279.463-1.788 2.86-2.212 3.932-.705 1.739-.666 4.053-.629 6.221a13.583 13.583 0 0 0 1.159 5.347zm1.839-10.575c.311-1.145.474-2.36 1.385-2.816a3.238 3.238 0 0 1 1.642-.653 2.408 2.408 0 0 1 2.107.773 16.528 16.528 0 0 1 1.318 6.187c.007.4.05.807.058 1.248a27.936 27.936 0 0 1-.126 3.457 6.434 6.434 0 0 1-1.184 3.66 3.579 3.579 0 0 1-1.938.62 1.834 1.834 0 0 1-1.035-.35 2.126 2.126 0 0 1-.525-.615 7.243 7.243 0 0 1-1.018-1.563 16.482 16.482 0 0 1-1.109-4.721 18.949 18.949 0 0 1 .426-5.228zM109.883 116.386c.625 0 1.727-.184 1.837-.4a10.779 10.779 0 0 0 .073-1.874c0-.514.036-1.726.036-2.571 0-1.212.3-4.335.3-5.951 0-.772-.111-1.359-.111-1.947 0-1.468.369-3.857.369-4.518 0-2.02-.331-4.3-.331-5.913 0-.735.073-1.506.073-2.241 0-.845-.4-.845-1.029-.845a2.433 2.433 0 0 0-1.249.257c-.331.331-.331 2.2-.331 2.572 0 .77 0 1.505.037 2.24.073 1.323.294 2.976.294 3.93 0 1.249-.294 3.636-.294 4.518l.037 1.8c0 2.241-.367 4.628-.367 6.355v3.82c-.005.584.105.768.656.768zM116.817 116.534a2.594 2.594 0 0 0 .992-.147c.367-.147.4-1.065.478-2.057s.184-4.775.184-7.089c0-1.359-.22-2.829-.22-4.187a11.749 11.749 0 0 1 .147-1.764c.294-.919 2.46-2.976 3.379-2.976.7 0 1.653 2.278 1.653 3.564 0 1.359.4 2.681.4 4 0 .514.037 2.094.11 3.159.037.514.147 1.176.147 1.543 0 1.249-.11 2.278-.11 3.306 0 .661-.073 1.8-.073 2.057 0 .441.514.588.881.661a2.442 2.442 0 0 0 .516.037 2.905 2.905 0 0 0 .917-.184c.257-.11.3-2.2.367-3.123.073-.808.111-1.689.111-2.571-.038-1.065-.111-2.131-.184-3.159-.073-.808-.148-1.617-.148-2.425 0-1.138-.367-1.8-.367-3.342a19.79 19.79 0 0 1 1.359-2.2 2.2 2.2 0 0 1 1.617-1.029c.882 0 1.47.514 1.946 1.837a56.808 56.808 0 0 1 .808 8.632v2.2c0 .845-.11 1.1-.11 1.727 0 .478.184 2.424.184 2.865s.4.588 1.286.588c.772 0 1.323-.037 1.323-1.029 0-.257-.184-2.13-.184-2.387 0-.441.073-1.984.073-3.674 0-.623 0-1.321-.037-1.946a54.769 54.769 0 0 0-.808-7.6c-.331-1.285-1.837-3.783-3.857-3.783a5.016 5.016 0 0 0-2.9.77c-.552.405-1.4 1.544-1.543 1.544s-.735-1.4-1.176-1.8a3.243 3.243 0 0 0-2.131-.808 5.556 5.556 0 0 0-3.489 1.8c0-.479.073-1.286-.147-1.433a5.312 5.312 0 0 0-1.764-.331.992.992 0 0 0-.513.184 4.27 4.27 0 0 0-.332 1.836c-.036.736-.036.772-.036 1.506 0 3.16.294 6.318.294 7.567 0 2.313-.294 6.318-.294 9.22a2.054 2.054 0 0 0 1.251.441zM138.825 115.982a3.741 3.741 0 0 0 2.13.661 9.2 9.2 0 0 0 3.27-.367c.588-.367.954-.808 1.286-.808.109 0 .476.4.7.625a3.477 3.477 0 0 0 .954.7 1.861 1.861 0 0 0 .478.073 2.05 2.05 0 0 0 1.212-.845 2.122 2.122 0 0 0 .22-.625c0-.367-.478-.7-.7-.919a4.885 4.885 0 0 1-.882-1.249c-.11-.331-.184-3.2-.184-3.563a21.76 21.76 0 0 1 .147-4.371 6.017 6.017 0 0 0 .11-1.58c0-1.58 0-2.35.073-3.159.037-.588.11-1.4.184-1.8a14.008 14.008 0 0 0 .257-2.277c0-.331-1.653-.955-1.873-.955a1.041 1.041 0 0 0-.552.147c-.367.184-.146.955-.513 1.727a3.631 3.631 0 0 0-2.2-1.4 7.374 7.374 0 0 0-1.432.073 8.367 8.367 0 0 0-2.057 1.506 7.379 7.379 0 0 0-1.8 3.636c-.257 1.249-.478 2.534-.625 3.783-.147 1.4-.184 2.682-.257 4a16.644 16.644 0 0 0 .367 3.821 9.035 9.035 0 0 0 1.687 3.166zm.625-9.844c.11-1.139.551-3.2.808-4.738a3.765 3.765 0 0 1 1.726-2.609 4.483 4.483 0 0 1 1.176-.072c.588 0 .955.623 1.286 1.138a3.655 3.655 0 0 1 .551 1.249c.037.257-.075 1.836-.075 2.5 0 .807-.219 1.615-.219 2.13l.037 2.534a33.4 33.4 0 0 0 .037 4.776 3.918 3.918 0 0 1-2.572 1.139 3.857 3.857 0 0 1-1.836-.3 7.27 7.27 0 0 1-1.029-3.893c0-1.246 0-2.715.108-3.854zM152.658 99.248c0 .735.148 1.139.148 1.874v2.35c.036.955.109 1.911.073 2.9-.11 2.093-.184 4.737-.184 6.538a6.49 6.49 0 0 0 .66 2.975 2.03 2.03 0 0 0 1.543.772 13.127 13.127 0 0 0 2.425-.22 3.383 3.383 0 0 0 1.986-2.53c0-.66-1.358-1.1-1.468-1.1-.184 0-.663.587-1.029.919a2 2 0 0 1-1.212.331c-.147 0-.294-.514-.294-.735v-3.054c0-1.139.184-2.645.184-3.674 0-1.249-.22-2.718-.22-4.114a22.2 22.2 0 0 0-.073-3.269 4.988 4.988 0 0 1 1.653-.184c.478 0 1.617.073 1.946.073s.4-.551.4-1.029a3.821 3.821 0 0 0-.184-1.286.933.933 0 0 0-.441-.184 5.837 5.837 0 0 0-1.4-.073c-.4 0-1.248.073-1.652.073a1.162 1.162 0 0 1-.11-.623c0-.882.11-1.8.11-2.682 0-.588-.073-1.433-.11-1.837s-.073-.955-.661-.955c-1.1 0-1.689.257-1.8.625a10.867 10.867 0 0 0-.073 1.617c0 .478.036.955.036 1.433 0 .735-.184 1.542-.184 2.277-.293.184-1.175.037-1.505.037-.4 0-.7.037-.772.257a3.069 3.069 0 0 0-.184.735c0 .331.11 1.359.4 1.543.342.179 1.775 0 1.992.22zM163.277 114.712a5.089 5.089 0 0 0 3.71 1.874 6.777 6.777 0 0 0 2.572-.332 2.883 2.883 0 0 0 2.2-2.351 15.806 15.806 0 0 0 .183-2.13c0-.256-.587-.623-.991-.808a2.212 2.212 0 0 0-.955-.184c-.367 0-.331 2.131-.588 2.535a1.691 1.691 0 0 1-1.212.735 3.889 3.889 0 0 1-2.462-.588 3.192 3.192 0 0 1-.807-.992 5.228 5.228 0 0 1-.588-1.653 11.179 11.179 0 0 1-.514-2.681c.11-.257 2.682-.551 3.123-.551s2.056.073 2.718.073a6.621 6.621 0 0 0 1.946-.11 5.52 5.52 0 0 0 .663-2.46 22 22 0 0 0-.257-3.49c-.257-1.909-1.03-4.077-2.9-4.959a3.9 3.9 0 0 0-2.058-.514 4.862 4.862 0 0 0-4.224 2.2c-.4.588-.661 1.543-1.064 2.241s-.845 1.285-.845 3.673a33.188 33.188 0 0 0 .4 5.032c.26 1.988.407 3.971 1.95 5.44zm.294-11.387a2.765 2.765 0 0 1 .7-2.02c.331-.551.625-2.131 1.874-2.5a4.12 4.12 0 0 1 1.175-.147c.735.037.808.257 1.286.808.992 1.248.955 2.975 1.1 4.3.037.367.073 1.176-.073 1.286s-1.983-.11-2.938 0a29.457 29.457 0 0 1-2.939.331c-.222-.074-.185-1.47-.185-2.058zM176.197 115.962a9.114 9.114 0 0 0 4.04.882c1.249 0 2.792-1.581 3.49-3.233a5.553 5.553 0 0 0 .4-1.911 8.945 8.945 0 0 0-.625-2.756c-.954-2.387-3.305-3.929-3.857-4.517a7.144 7.144 0 0 1-1.911-3.05 6.532 6.532 0 0 1-.257-1.47c0-1.211 2.168-1.8 2.939-1.8a2.128 2.128 0 0 1 1.727 1.359.859.859 0 0 0 .7.588 5.017 5.017 0 0 0 1.285-.588c.331-.147.514-.037.514-.551a1.958 1.958 0 0 0-.367-.955 4.8 4.8 0 0 0-3.82-2.388 6.108 6.108 0 0 0-2.681.479c-1.065.44-2.9 2.277-2.9 3.82a8.265 8.265 0 0 0 .294 1.873 10.649 10.649 0 0 0 2.976 4.849c.55.476 2.46 1.836 2.865 2.939a6.69 6.69 0 0 1 .551 2.2c0 .808-.955 2.572-1.69 2.572a7.517 7.517 0 0 1-1.836-.331 4.429 4.429 0 0 1-1.323-2.057c-.22-.514-.514-1.212-.955-1.212a2.312 2.312 0 0 0-.808.185 1.538 1.538 0 0 0-.955.954 6.972 6.972 0 0 0 1.065 2.5 5.627 5.627 0 0 0 1.139 1.619zM186.807 120.259c-1.145.027-3.733.124-6.27.148-4.331.039-9.457 0-13.828 0H57.056c-2.673 0-7.064.111-9.733 0-1.31-.056-4.964-.363-6.27-.435-.729-.04-2.906.273-1.747 1.463.836.858 3.442.613 4.539.645 3.477.1 8.648.1 13.086.1h109.671c4.633 0 9.867-.017 13.936 0 3.051.013 5.6.073 5.916.021.57-.091.9-.185 1-.834.059-.409-.109-1.134-.644-1.109-2.622.063.586-.027-.003.001zM59.335 124.303c-2.156-.023-3.774.052-5.786.039-1.608-.009-7.569.055-8.778-.075-.393-.043-1.191-.132-1.527.158a1.014 1.014 0 0 0 .1 1.39 4.854 4.854 0 0 0 1.856.254c.616.059 6.074-.057 8.1-.008 1.454.036 2.618.051 4.072.008.58-.017 1.9.165 2.323-.292.383-.411.325-1.468-.36-1.474zM54.4 128.16c-1.126.027-2.5.079-3.626.046a7.711 7.711 0 0 0-2.241.071 1 1 0 0 0-.073 1.519c.467.346 2.67.147 3.221.14.64-.008 2.485.181 2.9-.174.468-.397.474-1.622-.181-1.602zM40.415 115.82zM40.416 115.82c.357.532.655 1.4 1.407 1.28a.9.9 0 0 0 .649-1.375 13.519 13.519 0 0 1-1.924-3.556 12.478 12.478 0 0 1 1.705-10.667c3.12-4.644 10.806-5.371 15.42-2.92 4.013 2.658 5.758 7.167 5.479 11.882a10.807 10.807 0 0 1-1.011 3.655c-.478.915-1.367 1.714-1.205 2.381.263 1.09 1.523.517 1.914-.079a13.576 13.576 0 0 0 1.723-3.819c.428.121.878.141 1.3.271.329.1.878.48 1.236.275 1.735-1.435-1.407-1.879-2.258-2.12a14.745 14.745 0 0 0 .047-2.319 16.545 16.545 0 0 1 2.443-.1c.676-.041 1.35-.079 2.027-.1.539-.017 1.984.212 2.455-.152a1.3 1.3 0 0 0 .16-1.368c-.442-.494-2.317-.194-2.885-.19a29.351 29.351 0 0 0-4.369.232c-.078-.543-.187-1.126-.332-1.778.793-.282 1.544-.717 2.34-1.016.424-.16.813-.352 1.227-.544.372-.174 1.376-.312 1.535-.715.393-2.139-2.1-.709-2.962-.361s-1.69.677-2.527 1.1a10.39 10.39 0 0 0-.93-2.117c1.407-.885 2.641-1.943 4-2.882.789-.543 1.64-.975 2.391-1.569.4-.318 1.4-.7 1.316-1.3-.282-1.928-3.067.642-3.609.959-1.737 1.013-3.308 2.35-4.968 3.488a14.18 14.18 0 0 0-2.051-2.144c.383-.612 2.008-1.727 1.875-2.466-.107-.282-.649-.869-.983-.841-.3.024-.558.469-.74.679a20.5 20.5 0 0 0-1.422 1.72 12.576 12.576 0 0 0-2.043-.891c.8-2.092 1.453-4.092 2.052-6.247.251-.905 1.623-3.463.21-3.775-1.252-.275-1.569 2.767-1.829 3.639-.28.934-.428 1.909-.732 2.833-.351 1.068-.926 2.048-1.274 3.117a17.987 17.987 0 0 0-2.769-.356c.057-1.593.036-3.193.143-4.793.031-.453.328-1.384-.023-1.76a1.666 1.666 0 0 0-1.17-.236c-.693.35-.531 1.912-.553 2.548-.049 1.4 0 2.843-.114 4.231a15.529 15.529 0 0 0-2.167.224c-.179-.942-.122-3.525-1.861-2.68l-.014.008c-.594.313.158 2.564.239 3.057a12.441 12.441 0 0 0-2.538 1.064c-1.17-1.76-2.4-3.448-3.648-5.147-.517-.7-1.054-1.368-1.612-2.037-.288-.346-1.131-1.742-1.671-1.534-.891.206-.757 1.275-.379 1.779.61.815 1.359 1.512 1.967 2.335 1.352 1.83 2.725 3.6 3.917 5.543a10.472 10.472 0 0 0-2.014 2.069c-.768-.626-1.553-1.224-2.318-1.855-.544-.448-1.343-.447-1.353.538-.012 1.037 2.092 2.17 2.809 2.761a11.479 11.479 0 0 0-1.126 2.891c-1.487-.561-3-1.071-4.5-1.628-.482-.179-1.48-.866-1.975-.64a1.468 1.468 0 0 0-.564 1.173c.2.709 1.9 1.069 2.464 1.279 1.369.51 2.841.921 4.165 1.522a17.469 17.469 0 0 0-.235 1.776c-.885.065-4.051-.351-4.39.695-.39 1.2.879 1.056 1.581.987.92-.089 1.841.02 2.757-.107a13.226 13.226 0 0 0 .175 1.966 7.66 7.66 0 0 0-2.052.5 1.076 1.076 0 0 0-.2 1.372c.516.654 2.062-.032 2.68-.209a14.16 14.16 0 0 0 1.492 2.558c.316.475.073.116 0 .006zM71.933 93.178c-.36.375-.62 1.63.261 1.666.448.018 1.348-.892 1.708-1.161a17.444 17.444 0 0 0 1.537-1.263c.32-.3 1.052-.728 1.257-1.081a.852.852 0 0 0-.971-1.2c-.517.116-.818.706-1.184 1.011a31.734 31.734 0 0 0-2.608 2.028zM70.475 112.509c-.385-.077-1-.332-1.4-.19s-.772.723-.536 1.087c.149.232.729.351.965.428 1.473.484 3.026.619 4.5 1.081.948.3 1.893.5 2.839.762.473.133.8.332 1.088-.161.193-.326.136-1.141-.314-1.252-1.726-.493-3.479-1.028-5.25-1.382-.628-.125-1.26-.247-1.892-.373z" fill="#343434"/>
    <path d="M77.62 114.266c.1.024-.015 0 0 0zM62.369 93.93c.975.908 1.409-.506 1.856-1.172.427-.638.913-1.22 1.324-1.868.393-.62.8-1.236 1.249-1.815.3-.385 1.387-1.333 1.271-1.868-.114-.276-.7-.864-1.023-.814-.51.04-1.183 1.417-1.463 1.793-.443.6-.9 1.182-1.319 1.8-.531.778-2.741 3.156-1.895 3.944z" fill="#343434"/>
    <path d="M67.046 86.394c.132-.02-.16.013 0 0zM78.307 89.846c.634 0 1.568-1.156 2.066-1.5s.939-.741 1.419-1.114c.325-.252 1.182-.551 1.25-1.011-.058-2.347-2.619.16-3.327.659a14.123 14.123 0 0 0-1.608 1.263c-.255.241-.626.465-.6.85a1.245 1.245 0 0 0 .8.853zM68.634 85.429c.953.731 2.476-2.278 3.025-2.906.626-.717 1.141-1.522 1.768-2.235.476-.544 1.242-1.057 1.343-1.837.06-.365-.591-.76-.894-.742-.441.026-.757.564-1.036.869-.809.889-1.537 1.841-2.315 2.758-.558.659-1.039 1.329-1.529 2.037-.504.725-1.295 1.335-.362 2.056zM26.918 108.262c-1.313.039-2.61.254-3.929.222-.837-.019-2.194-.417-2.609.561-.569 1.34 1.563.979 2.315 1.006 2.247.081 4.513-.165 6.77-.12.537.011 1.049-.088 1.581-.089.335 0 .924.179 1.22-.056a.935.935 0 0 0-.095-1.307c-.345-.3-.966-.224-1.393-.209-1.288.09-2.562-.047-3.86-.008zM70.887 102.095c.3.429.731.155 1.163.017 1.317-.423 2.62-.806 3.956-1.161.51-.136.964-.363 1.461-.523.319-.1.9-.084 1.07-.431.223-.443-.3-1.158-.731-1.242a2.73 2.73 0 0 0-1.349.417 14.583 14.583 0 0 1-2.924.783c-.786.256-1.556.553-2.343.809-.434.143-.53 1.011-.303 1.331zM43.3 82.358c-.466.152-.38.414-.252.811.3.928.45 1.86.83 2.766a19.4 19.4 0 0 1 .923 2.83 22.576 22.576 0 0 0 .724 2.287c.337.915 1.5.644 1.551-.331.026-.512-.375-1.042-.545-1.5-.358-.964-.39-2.016-.814-2.962a15.827 15.827 0 0 1-.91-2.566c-.209-.805-.434-1.685-1.507-1.335zM16.409 110.177c.4.014 2.15.18 2.421-.126 1.01-1.64-1.1-1.49-2.049-1.476-.85.013-1.678-.066-2.528.008-.563.051-1.039-.062-1.207.565a.765.765 0 0 0 .648 1.047 24.464 24.464 0 0 0 2.715-.018zM14.685 98.652c.078.012.062.011.032.007a39.593 39.593 0 0 1 4.954 1.532q1.6.457 3.208.888c.128.034.434.184.569.147.473-.126.713-1.477.143-1.619a51.485 51.485 0 0 1-4.931-1.476 21.605 21.605 0 0 0-3.134-.99c-.653-.13-.889-.185-1.012.518-.032.179-.146.965.171.993z" fill="#343434"/>
    <path d="M14.717 98.66l-.032-.007c-.128-.011-.022.002.032.007zM24.664 115.864a16.092 16.092 0 0 0-2.866.986c-1.028.271-2.062.523-3.091.793-.881.231-1.73.51-2.594.8-.415.139-1.822.363-1.822.955.081 1.581 1.615.964 2.459.638a37.63 37.63 0 0 1 3.934-1.166c.724-.192 6.1-1.271 4.328-2.878a.529.529 0 0 0-.348-.128zM59.72 85.09c1.227.459 1.553-1.609 1.886-2.46.172-.439.335-.882.51-1.32.218-.548 1.179-1.983.926-2.545a.971.971 0 0 0-1.54-.261 6.04 6.04 0 0 0-.839 1.817c-.391.977-.817 1.937-1.211 2.911-.321.791-.742 1.477.268 1.858zM63.281 77.363c.751.275 1.311-2.488 1.444-2.937.3-1.009 1.144-2.388-.421-2.543-.807-.079-.8.338-.985 1.057s-.318 1.447-.543 2.151c-.388 1.205-.935 1.743.505 2.272zM25.612 101.772c.711.247 1.444.44 2.168.647a12.426 12.426 0 0 0 2.177.628c.553.047.782-.2.915-.738.164-.67-.123-.762-.793-1.03a23.442 23.442 0 0 0-2.929-.922c-.423-.108-1.145-.466-1.521-.166-.279.223-.437 1.436-.017 1.581zM32.516 83.828l.211.273zM34.776 86.807c.229.328.613 1.019 1.047 1.041a1.5 1.5 0 0 0 1.1-.894c.055-.674-1.248-1.913-1.644-2.417-.37-.469-.763-.926-1.118-1.407-.216-.294-.658-1.337-1.092-1.308-1.407.043-1.135 1.249-.558 2.005.774.995 1.548 1.951 2.265 2.98zM29.89 80.026c.119.146.078.1.008.012.535.66.987 1.455 1.8.658.764-.75-.379-1.652-.907-2.322-.487-.617-.967-1.774-1.792-1.141-1.211.93.207 1.958.887 2.789-.119-.148-.302-.37.004.004z" fill="#343434"/>
    <path d="M29.886 80.021l.012.017-.008-.012zM41.327 77.792c.194.6.3 2.555.875 2.933a1.144 1.144 0 0 0 1.517-.6c.085-.348-.232-.962-.324-1.317-.147-.563-.308-1.1-.5-1.649-.379-1.089-.576-2.265-.87-3.385-.188-.718-.114-2-.94-2.171-1.961-.411-.725 2.591-.514 3.417.243.928.465 1.86.756 2.772zM50.839 74.33c-.008.487-.251 1.378.2 1.74a2.045 2.045 0 0 0 1.031.109c.825-.357.444-2.225.414-3-.03-.792-.066-1.582-.134-2.372-.058-.677-.235-.919-1.017-.761-.89.178-.769.642-.705 1.481.074.931.227 1.867.211 2.803zM20.082 87.466c1.01.689 2.076 1.293 3.073 2 .262.185.751.788 1.076.768.388-.025.91-.756.91-1.106 0-.759-1.438-1.368-1.984-1.716s-2.193-1.8-2.8-1.568a.94.94 0 0 0-.275 1.622zM78.842 107.226c-.024-.434-.068-1.139-.532-1.3-.424-.149-1.221.162-1.659.238-.8.139-2.99-.055-3.29.751-.5 1.337.972 1.22 1.81 1.151.571-.05 3.697-.075 3.671-.84zM52.585 77.958c0 .206 0-.079 0 0zM51.599 77.352c-1.037.018-.53 1.689-.518 2.372.019 1.062.041 2.124.043 3.187 0 1.19-.034 2.392-.007 3.58.014.639.491 1.276 1.262.949.636-.27.449-1.332.428-1.912-.044-1.173-.117-2.343-.127-3.519-.012-1.346-.065-2.706-.095-4.05-.009-.619-.491-.577-.986-.607zM26.596 91.721a25.388 25.388 0 0 0 3.614 2.7c.831.572 1.625 1.188 2.478 1.728.58.367 1.121.77 1.671 1.183.262.2.766.725 1.139.741.574 0 1.164-.609.928-1.164-.152-.357-.8-.7-1.1-.922-1.012-.763-2.076-1.454-3.106-2.191s-2.114-1.4-3.09-2.2c-.655-.535-2.328-2.336-2.847-.517-.102.306.188.54.313.642zM33.555 112.967c.162-.05.255-.078 0 0-.742.226-.3.092-.019.006-1.6.486-3.194 1-4.756 1.577-.482.179-1.946.472-2.136 1.024-.084.25.235.859.392 1.037.352.4.484.326.981.141 1.868-.7 3.7-1.481 5.62-2.041.653-.191 1.257-.2 1.261-.949.002-.928-.56-1.031-1.343-.795z" fill="#343434"/>
    <path fill="none" d="M0 0h200v200H0z"/>
  </g>
</svg>
