<svg id="logo" xmlns="http://www.w3.org/2000/svg" viewBox="0 0 150 50" width="100%" height="100%">
  <path d="M58.56 20.19a12.73 12.73 0 0 0-.41 2.63 6.23 6.23 0 0 0 1.39 3.64 12.75 12.75 0 0 0 2.4 1.68 9 9 0 0 1 2.88 2.06 6.92 6.92 0 0 1 .76 2.53 10.37 10.37 0 0 1-.28 2.82 4.7 4.7 0 0 1-.63 1.68 3 3 0 0 1-2.31.76 2 2 0 0 1-1.17-.16A2.42 2.42 0 0 1 60 35.88a12.5 12.5 0 0 1 0-1.52.66.66 0 0 0-.6-.73 2.47 2.47 0 0 0-.89.13.87.87 0 0 0-.73.73v1.46a4.57 4.57 0 0 0 2.78 4 4.79 4.79 0 0 0 1.8.25 6 6 0 0 0 3.35-.95 5.7 5.7 0 0 0 1.61-3 13.72 13.72 0 0 0 .44-3.54 9.36 9.36 0 0 0-1-3.58 14.87 14.87 0 0 0-3.51-2.72A6.69 6.69 0 0 1 61.18 25a2.51 2.51 0 0 1-.82-2.28 17.71 17.71 0 0 1 .38-2 2.38 2.38 0 0 1 .38-1.27 4.33 4.33 0 0 1 2-.6 3.65 3.65 0 0 1 1.93.54 3.59 3.59 0 0 1 .92.92 2.17 2.17 0 0 0 .73.63 1.31 1.31 0 0 0 .85-.92 2.79 2.79 0 0 0 .16-.6 1.91 1.91 0 0 0-.92-1.39 5.11 5.11 0 0 0-3.92-1.39 5.49 5.49 0 0 0-3.64 1.52 5.32 5.32 0 0 0-.67 2.03zM70.87 36.46a12.25 12.25 0 0 0 .91 1.54 6.71 6.71 0 0 0 .71 1.09 4.09 4.09 0 0 0 2.93 1.12 7.32 7.32 0 0 0 2.52-.71c.91-.43 2.07-2.95 2.26-4.88a19.73 19.73 0 0 0 .09-2.41c0-.66-.05-1.3-.06-1.93 0-2.44-1-6.31-2.05-7.28a5.54 5.54 0 0 0-3.5-.83 6.9 6.9 0 0 0-2.36.93c-1.1.4-1.54 2.46-1.91 3.39a14.46 14.46 0 0 0-.54 5.36 11.69 11.69 0 0 0 1 4.61zm1.58-9.11c.27-1 .41-2 1.19-2.43a2.8 2.8 0 0 1 1.41-.56 2.08 2.08 0 0 1 1.82.67A14.24 14.24 0 0 1 78 30.36c0 .35 0 .7.05 1.08a24 24 0 0 1-.11 3 5.54 5.54 0 0 1-1 3.15 3.09 3.09 0 0 1-1.67.53 1.59 1.59 0 0 1-.89-.3 1.84 1.84 0 0 1-.45-.53 6.26 6.26 0 0 1-.93-1.37 14.22 14.22 0 0 1-1-4.07 16.33 16.33 0 0 1 .46-4.5zM83.3 39.84a3.07 3.07 0 0 0 1.58-.35 9.2 9.2 0 0 0 .06-1.61v-2.21c0-1 .25-3.73.25-5.13 0-.66-.1-1.17-.1-1.68 0-1.27.32-3.32.32-3.89 0-1.74-.28-3.7-.28-5.09 0-.63.06-1.3.06-1.93s-.35-.73-.89-.73a2.1 2.1 0 0 0-1.08.22 5.86 5.86 0 0 0-.22 2.21v1.93c.06 1.14.25 2.56.25 3.39.02 1.03-.25 3.13-.25 3.89v1.55c0 1.93-.32 4-.32 5.47v3.29c.05.51.14.67.62.67zM89.27 40a2.23 2.23 0 0 0 .85-.13c.32-.13.35-.92.41-1.77s.16-4.1.16-6.1c0-1.17-.19-2.44-.19-3.61a10.1 10.1 0 0 1 .13-1.52c.25-.79 2.12-2.56 2.91-2.56.6 0 1.42 2 1.42 3.07s.35 2.31.35 3.45c0 .44 0 1.8.09 2.72 0 .44.13 1 .13 1.33 0 1.08-.09 2-.09 2.85 0 .57-.06 1.55-.06 1.77a.76.76 0 0 0 .76.57 2.07 2.07 0 0 0 .44 0 2.51 2.51 0 0 0 .79-.16c.22-.09.25-1.9.32-2.69s.1-1.46.1-2.21c0-.92-.1-1.84-.16-2.72-.06-.7-.13-1.39-.13-2.09 0-1-.32-1.55-.32-2.88a17 17 0 0 1 1.17-1.9 1.9 1.9 0 0 1 1.39-.89c.76 0 1.27.44 1.68 1.58a49 49 0 0 1 .7 7.43v1.9c0 .73-.09.95-.09 1.49s.16 2.09.16 2.47.35.51 1.11.51 1.14 0 1.14-.89c0-.22-.16-1.83-.16-2.06 0-.38.06-1.71.06-3.16v-1.68a47.13 47.13 0 0 0-.7-6.55c-.28-1.11-1.58-3.26-3.32-3.26a4.32 4.32 0 0 0-2.5.66c-.48.35-1.2 1.33-1.33 1.33s-.63-1.2-1-1.55a2.79 2.79 0 0 0-1.84-.7 4.78 4.78 0 0 0-3 1.55 2.34 2.34 0 0 0-.13-1.23 4.58 4.58 0 0 0-1.52-.28.86.86 0 0 0-.44.16 3.69 3.69 0 0 0-.28 1.58v1.3c0 2.72.25 5.44.25 6.52 0 2-.25 5.44-.25 7.94a1.78 1.78 0 0 0 .99.41zM108.23 39.49a3.22 3.22 0 0 0 1.83.57 7.93 7.93 0 0 0 2.82-.32A3.67 3.67 0 0 1 114 39a2.7 2.7 0 0 1 .6.54 3 3 0 0 0 .82.6 1.61 1.61 0 0 0 .41.06 1.77 1.77 0 0 0 1-.73 1.82 1.82 0 0 0 .19-.54 1.49 1.49 0 0 0-.6-.79 4.21 4.21 0 0 1-.76-1.08c-.09-.28-.16-2.75-.16-3.07a18.76 18.76 0 0 1 .13-3.77 5.16 5.16 0 0 0 .1-1.36c0-1.36 0-2 .06-2.72 0-.51.1-1.2.16-1.55a12.08 12.08 0 0 0 .22-2 3.28 3.28 0 0 0-1.61-.82.9.9 0 0 0-.48.13c-.32.16-.13.82-.44 1.49a3.13 3.13 0 0 0-1.9-1.2 6.41 6.41 0 0 0-1.23.06 7.23 7.23 0 0 0-1.77 1.3 6.36 6.36 0 0 0-1.55 3.13c-.19 1.16-.39 2.32-.51 3.32s-.16 2.31-.22 3.45a14.34 14.34 0 0 0 .32 3.29 7.79 7.79 0 0 0 1.45 2.75zm.53-8.49c.09-1 .47-2.75.7-4.08a3.24 3.24 0 0 1 1.49-2.25 3.83 3.83 0 0 1 1-.06 1.61 1.61 0 0 1 1.11 1 3.14 3.14 0 0 1 .47 1.08c0 .22-.06 1.58-.06 2.15s-.19 1.39-.19 1.83v2.18a28.71 28.71 0 0 0 0 4.11 3.37 3.37 0 0 1-2.21 1 3.33 3.33 0 0 1-1.58-.25 6.26 6.26 0 0 1-.89-3.35c.07-1.11.07-2.36.16-3.36zM120.14 25.07c0 .63.13 1 .13 1.61v2c0 .82.09 1.65.06 2.5-.09 1.8-.16 4.08-.16 5.63a5.58 5.58 0 0 0 .57 2.56 1.75 1.75 0 0 0 1.33.66 11.37 11.37 0 0 0 2.09-.19 2.92 2.92 0 0 0 1.71-2.18c0-.57-1.17-.95-1.27-.95a4.23 4.23 0 0 0-.89.79 1.73 1.73 0 0 1-1 .28.84.84 0 0 1-.25-.63v-2.58c0-1 .16-2.28.16-3.16 0-1.08-.19-2.34-.19-3.54a19.11 19.11 0 0 0-.06-2.82 4.31 4.31 0 0 1 1.42-.16c.41 0 1.39.06 1.68.06s.35-.47.35-.89a3.29 3.29 0 0 0-.16-1.11.8.8 0 0 0-.38-.16 5 5 0 0 0-1.2-.06c-.35 0-1.08.06-1.42.06a1 1 0 0 1-.09-.54c0-.76.09-1.55.09-2.31 0-.51-.06-1.23-.09-1.58s-.06-.82-.57-.82c-.95 0-1.46.22-1.55.54a9.34 9.34 0 0 0-.06 1.39v1.23c0 .63-.16 1.33-.16 2a3.56 3.56 0 0 1-1.3 0 .63.63 0 0 0-.66.22 2.64 2.64 0 0 0-.16.63 2.32 2.32 0 0 0 .35 1.33c.26.12 1.54 0 1.68.19zM129.29 38.39a4.38 4.38 0 0 0 3.2 1.61 5.84 5.84 0 0 0 2.21-.29 2.48 2.48 0 0 0 1.9-2 13.5 13.5 0 0 0 .16-1.84 1.53 1.53 0 0 0-.85-.7 1.9 1.9 0 0 0-.82-.16c-.32 0-.28 1.84-.51 2.18a1.45 1.45 0 0 1-1 .63 3.35 3.35 0 0 1-2.12-.51 2.74 2.74 0 0 1-.7-.85 4.51 4.51 0 0 1-.56-1.46 9.65 9.65 0 0 1-.44-2.31 9.3 9.3 0 0 1 2.69-.48c.38 0 1.77.06 2.34.06a5.73 5.73 0 0 0 1.68-.09 4.77 4.77 0 0 0 .53-2.08 18.94 18.94 0 0 0-.22-3c-.22-1.65-.89-3.51-2.5-4.27a3.36 3.36 0 0 0-1.77-.44 4.19 4.19 0 0 0-3.64 1.9c-.35.51-.57 1.33-.92 1.93a4.92 4.92 0 0 0-.73 3.16 28.59 28.59 0 0 0 .35 4.33c.26 1.71.43 3.42 1.72 4.68zm.25-9.81a2.39 2.39 0 0 1 .6-1.74c.28-.47.54-1.84 1.61-2.15a3.56 3.56 0 0 1 1-.13 1.25 1.25 0 0 1 1.11.7c.85 1.08.82 2.56.95 3.7a2.38 2.38 0 0 1-.06 1.11c-.13.09-1.71-.09-2.53 0a25.07 25.07 0 0 1-2.53.28 4.52 4.52 0 0 1-.15-1.76zM140.42 39.47a7.85 7.85 0 0 0 3.48.76c1.08 0 2.4-1.36 3-2.78a4.79 4.79 0 0 0 .35-1.65 7.73 7.73 0 0 0-.54-2.37c-.82-2.06-2.85-3.38-3.32-3.89a6.15 6.15 0 0 1-1.65-2.63 5.58 5.58 0 0 1-.22-1.27c0-1 1.87-1.55 2.53-1.55a1.83 1.83 0 0 1 1.49 1.17.74.74 0 0 0 .6.51 4.31 4.31 0 0 0 1.11-.51c.28-.13.44 0 .44-.47a1.69 1.69 0 0 0-.32-.82 4.13 4.13 0 0 0-3.29-2.06 5.26 5.26 0 0 0-2.31.41c-.92.38-2.5 2-2.5 3.29a7.13 7.13 0 0 0 .25 1.61 9.17 9.17 0 0 0 2.56 4.18c.47.41 2.12 1.58 2.47 2.53a5.76 5.76 0 0 1 .48 1.9c0 .7-.82 2.21-1.46 2.21a6.51 6.51 0 0 1-1.58-.28 3.82 3.82 0 0 1-1.13-1.76 1.45 1.45 0 0 0-.82-1 2 2 0 0 0-.7.16 1.32 1.32 0 0 0-.82.82 6 6 0 0 0 .92 2.15 4.83 4.83 0 0 0 .98 1.34zM149.57 44.19h-.66c-1.92.23-2.61.28-3.28.36-1.05.13-1.49.28-2.11.32-1.14.06-2 0-2.91 0l-1 .07c-1 .05-1.86-.08-2.7 0-1.71.09-1.5.13-1.92.16s-1.48 0-1.91 0a7.64 7.64 0 0 0-.93-.07c-.31 0-.91.07-1.07.06h-.65c-1.93.07-2.62.06-3.3.08-1.06 0-1.51.16-2.13.13-1.14 0-2-.22-2.9-.25h-1c-1 0-1.84-.23-2.69-.26-1.71-.06-1.5 0-1.93 0s-1.48-.09-1.9-.16a28.67 28.67 0 0 0-3.32-.07c-1.07.05-2.16.14-2.48.16-1.06.09-1.5.23-2.11.24-1.14 0-2-.12-2.91-.1h-1c-1 0-1.85-.14-2.7-.13-1.71 0-1.5.08-1.92.09s-1.48 0-1.91-.06a8.19 8.19 0 0 0-1.78-.15h-3.3c-1.06 0-1.51.13-2.13.1-1.14-.06-2-.25-2.9-.3h-1c-1-.05-1.84-.26-2.69-.31-1.71-.09-1.5 0-1.93 0s-1.48-.11-1.9-.19-4.69 0-5.37 0c-1.06.08-1.5.21-2.12.21-1.14 0-2-.15-2.91-.15h-1c-1 0-1.85-.17-2.7-.17-1.71 0-1.5.06-1.93.06s-1.48 0-1.91-.09-1.3-.14-2.15-.18-2.62.11-3.3.13c-1.06.06-1.51.18-2.12.17-1.14 0-2-.19-2.9-.2h-1c-1 0-1.85-.2-2.69-.22h-1.93c-.43 0-1.48-.06-1.9-.13-.27 0-1-.17-1.08-.17h-.68c-2 .14-2.72.16-3.42.2-1.1.08-1.56.22-2.2.22-1.18 0-2.1-.16-3-.16h-1c-1.06 0-1.92-.18-2.8-.18-1.78 0-1.56.06-2 .06s-1.54 0-2-.1a8.07 8.07 0 0 0-1-.12 2.41 2.41 0 0 0-.92.14c-.1.08-.18 0-.18.41a1.12 1.12 0 0 0 .16.61 1.44 1.44 0 0 0 .52.12 9.29 9.29 0 0 1 1 .08c.38 0 2.1.1 2.38.1h2.34c.24 0 .6.08 1 .12.62.06 1.18.06 1.74.06h1c1.26.06 2.56.1 3.16.1s1.5-.14 2.26-.22 2.4-.17 2.54-.17c.34 0 1.51 0 1.83.08s2 .14 2.29.14h2.25c.23 0 .58.09.94.13.6.07 1.14.08 1.67.09h.94c1.21.08 2.46.14 3 .15s1.45-.11 2.18-.17 2.31-.11 2.45-.11c.39 0 1.92.09 2.25.13s2 .09 2.29.09h2.25c.23 0 .58.08.94.11.6.06 1.14.06 1.68.06h.94c1.21.06 2.46.09 3 .09s3.29-.23 4.29-.23 4.49.2 4.76.21l2.25.1c.23 0 .57.1.94.16.59.09 1.13.11 1.67.14.25 0 .58 0 .94.07 1.21.12 2.46.22 3 .25s1.45-.06 2.19-.1 1.69 0 2.45 0 1.62.09 1.95.12 2 .06 2.29.06l2.25-.06c.23 0 .58.07.95.1h2.62c1.21 0 2.47.05 3 0s1.44-.16 2.17-.24 2.31-.19 2.44-.19h1.56a9.2 9.2 0 0 1 1 .11c.36.05 2 .16 2.29.17l2.25.06c.23 0 .57.1.94.15.59.08 1.13.1 1.67.11.25 0 .58 0 .94.05 1.21.1 2.46.18 3 .2s1.45-.08 2.18-.13 2.32-.07 2.45-.07h1.87a9.19 9.19 0 0 1 1 0h2.3l2.25-.13c.23 0 .58 0 .95.07h2.62c1.22 0 2.47 0 3-.06s1.44-.21 2.16-.32 2.3-.27 2.44-.28a9.74 9.74 0 0 0 1.21-.1.77.77 0 0 0 .25-.73.39.39 0 0 0-.31-.53zM39.75 46.27h-.68c-1.21.06-1.41.09-2.5.11h-2.25c-1 0-1.81-.2-2.64-.22a16.19 16.19 0 0 0-1.89 0 12.47 12.47 0 0 1-1.87-.16 7.24 7.24 0 0 0-.92-.1 2.23 2.23 0 0 0-.87.12c-.13.08-.13-.02-.13.4a1.1 1.1 0 0 0 .14.59 1.34 1.34 0 0 0 .49.12 8.72 8.72 0 0 1 .94.09c.36 0 1.85.13 2.25.13h2.21c.23 0 .57.09.92.13.59.07 1.11.08 1.64.08h.93c.36 0 1.08-.05 1.08-.05l2-.09a9.76 9.76 0 0 0 1.21 0 .78.78 0 0 0 .31-.71.38.38 0 0 0-.37-.44zM35.3 48.89h-3.98a3.62 3.62 0 0 0-.88 0c-.09.08-.18 0-.17.42a.91.91 0 0 0 .18.53 1.33 1.33 0 0 0 .5.06 8.73 8.73 0 0 1 .95 0h1.4a19.8 19.8 0 0 0 2.18.09.61.61 0 0 0 .25-.64.39.39 0 0 0-.43-.46zM24.28 40.3a.71.71 0 0 0 .72-.12.35.35 0 0 0 .17-.52l-.32-.53-.25-.34a9.15 9.15 0 0 1-1.67-4.94 13.27 13.27 0 0 1 1.24-5.73c1.33-3.41 4.91-4.81 8.35-5a11.52 11.52 0 0 1 6 1.12 9.44 9.44 0 0 1 3.85 4.69c.69 2.19 1.28 5.27.71 7.35a10.89 10.89 0 0 1-1.32 2.77 2.59 2.59 0 0 0-.47.67c0 .15-.19.11.19.39a1.14 1.14 0 0 0 .66.23 1.66 1.66 0 0 0 .45-.44c.15-.22.7-1.35.93-1.77a7.07 7.07 0 0 0 .65-1.73h.1c.27.08.83.14 1.09.22.07 0 .4.18.67.26a.57.57 0 0 0 .34 0 1.94 1.94 0 0 0 .3-.58c.1-.33.07-.4-.25-.49l-.85-.27c-.13 0-.91-.2-1.13-.26h-.08a12.48 12.48 0 0 0 0-2.19h1.71l1.52-.1c.19 0 2.24-.06 2.48-.08a.48.48 0 0 0 .39-.12 2.86 2.86 0 0 0 .08-.88 2.67 2.67 0 0 0-1.35-.18h-1.6c-1 .09-1.43.09-1.92.13s-1 0-1.22.05h-.22c-.08-.57-.19-1.16-.33-1.76l.17-.06c.1 0 .88-.46 1.24-.6l1.08-.39c.24-.09.83-.42 1-.51.06 0 .39-.09.63-.18a.49.49 0 0 0 .26-.17 2.11 2.11 0 0 0-.12-.65c-.12-.33-.19-.36-.47-.25l-.69.3c-.12 0-.91.42-1.11.49l-1 .37c-.21.08-.6.3-.73.37s-.28.15-.46.24a8.71 8.71 0 0 0-.89-2c.43-.28.87-.51 1.27-.79s.66-.49.92-.72 1-.79 1.23-1c.64-.45 1.35-.81 2-1.26.16-.11.19-.22.42-.38s.51-.3.67-.41.31-.22.08-.55a.69.69 0 0 0-.76-.34l-.64.4c-.23.19-.15.21-.32.33-.73.51-1.46.84-2.1 1.29-.31.22-1.16 1-2 1.57-.26.18-.7.46-1 .62l-.42.28a12 12 0 0 0-1.91-2c.1-.16.19-.31.25-.38s.29-.28.45-.48a.48.48 0 0 0 .18-.29 2.11 2.11 0 0 0-.44-.49c-.27-.22-.34-.21-.53 0s-.44.53-.52.63l-.23.33a10.61 10.61 0 0 0-2-.85l.17-.45c.42-1 .83-2.08 1-2.57s.32-1.27.48-1.92.57-2 .61-2.14a8.66 8.66 0 0 0 .34-1 .72.72 0 0 0-.54-.47.36.36 0 0 0-.53.2l-.21.55c-.47 1.69-.66 2.28-.84 2.87-.26.93-.27 1.35-.46 1.87-.34 1-.75 1.68-1 2.44l-.12.35a15.34 15.34 0 0 0-2.6-.33v-.43c0-.13-.06-.47-.06-.68 0-.4.11-1.12.12-1.69s.06-1.26.06-1.68c0-.21.1-.49.1-.75a.56.56 0 0 0-.08-.44 2.65 2.65 0 0 0-.85-.19c-.26 0-.38 1-.39 1.23 0 1.15-.06 1.57-.07 2.11 0 .38-.07 1.12-.08 1.34s0 .59 0 .75V22a13.28 13.28 0 0 0-2.08.22c-.06-.29-.1-.54-.11-.72A6 6 0 0 0 30 20a1.38 1.38 0 0 0-1-.14.42.42 0 0 0-.11.5l.21 1.16c.07.32.12.64.17 1a10.57 10.57 0 0 0-2.37 1c-.33-.49-.64-1-1-1.49a16.53 16.53 0 0 0-1.36-1.84l-1.41-1.91c-.29-.39-.65-.76-1-1.16l-.75-.91a.42.42 0 0 0-.38-.26 1.39 1.39 0 0 0-.56.88 6 6 0 0 0 1 1.18 15.47 15.47 0 0 1 1 1.22c.26.4 1.25 1.68 1.53 2.05s.67.87 1 1.32.63 1 1 1.57A8.83 8.83 0 0 0 24 26.1a8.14 8.14 0 0 0-.81-.61c-.26-.16-1.55-1.32-1.65-1.36a.47.47 0 0 0-.49.36.86.86 0 0 0-.11.54 16.22 16.22 0 0 0 1.53 1.41 10.63 10.63 0 0 1 .92.7c0 .1-.11.18-.16.28a15.6 15.6 0 0 0-.89 2.41l-.65-.24c-.13 0-.47-.09-.67-.16-.38-.13-1-.45-1.57-.64s-1.18-.45-1.57-.58c-.2-.07-.43-.24-.68-.33a.56.56 0 0 0-.44-.06 2.64 2.64 0 0 0-.45.77c-.09.25.82.67 1.05.75 1.09.38 1.48.55 2 .73s1 .42 1.25.49.58.15.73.2.5.2.73.31a14.77 14.77 0 0 0-.23 1.72c-.28 0-.81.06-1 .06h-1c-.24 0-.73.07-.89.09a3.22 3.22 0 0 1-.54.07c-.41-.01-.41.26-.41.47a1.09 1.09 0 0 0 .16.52.78.78 0 0 0 .38.05c.12 0 .91-.12 1.33-.12L21 34c.2 0 .53-.05.8-.08a11.14 11.14 0 0 0 .2 1.88l-1 .25c-.2.06-.49.06-.74.13a.56.56 0 0 0-.39.21 2.63 2.63 0 0 0 .09.89c.08.25 1.06.06 1.29 0l1-.28a10.19 10.19 0 0 0 1.05 1.9c.22.3.85 1.26.98 1.4zM51.08 19.64c-.16.11-.41.32-.57.46a.82.82 0 0 0 .13.92c.19.23.27.16.55-.07.46-.38 1-.66 1.38-1l1-.83c.15-.12.17-.23.38-.41s.49-.34.64-.46.29-.25 0-.55a.69.69 0 0 0-.78-.28l-.6.45c-.22.2-.13.22-.29.36-.68.57-.15.11-.92.75-.22.17-.65.48-.92.66zM54.76 37.91c-.29-.05-.26 0-.46 0-.86-.21-1.59-.56-2.35-.75-.37-.09-3.37-.67-3.57-.72a.82.82 0 0 0-.66.64c-.07.29 2.09.8 2.44.85s1.25.24 1.52.31c.76.19 1.5.5 2.26.69.19 0 .29 0 .56.07s.56.19.75.24.37.09.47-.3a.69.69 0 0 0-.23-.8z"/>
  <path d="M44.13 17.33c-.23.31-.42.54-.5.64s-.54.84-.66 1l-.67.87c-.13.18-.34.58-.41.7a5.12 5.12 0 0 1-.33.56c-.18.24.06.42.23.54a1.18 1.18 0 0 0 .51.2.66.66 0 0 0 .25-.25c.07-.09.49-.86.72-1.17l.7-.91c.15-.2.47-.8.61-1s.28-.29.43-.49a.48.48 0 0 0 .12-.28 2.11 2.11 0 0 0-.45-.47c-.3-.19-.37-.18-.55.06zM45.6 23.69zM56.12 16.85a.78.78 0 0 0 .34-.18c.1-.07.67-.62 1-.87l.89-.61c.23-.16.62-.57.84-.72.06 0 .39-.21.61-.37a.57.57 0 0 0 .23-.25 1.92 1.92 0 0 0-.27-.6c-.2-.28-.27-.3-.55-.11s-.62.42-.74.5-.72.59-.9.72l-.82.64c-.2.14-.56.48-.68.59a3.19 3.19 0 0 1-.4.37c-.27.19-.1.43 0 .6a1.09 1.09 0 0 0 .45.29zM45.57 16.42a.36.36 0 0 0 .57 0l.38-.46c1-1.46 1.34-2 1.68-2.47.53-.8.68-1.2 1-1.64.63-.82 1.23-1.37 1.72-2 .19-.25.73-1 1-1.31a6.85 6.85 0 0 0 .59-.6 2.07 2.07 0 0 0 .39-.71c0-.11.08-.14-.19-.35a1 1 0 0 0-.51-.22 1.23 1.23 0 0 0-.36.3 7.92 7.92 0 0 1-.59.65c-.23.24-.55.63-.84 1-.14.18-.32.42-.54.67-.71.84-1.43 1.72-1.75 2.13s-.7 1.11-1.05 1.68-1.17 1.75-1.24 1.84a8.54 8.54 0 0 0-.64.89.72.72 0 0 0 .38.6zM9 33.16H6.82a.84.84 0 0 0-.55.8c0 .3.12.29.54.29.68 0 1.32.08 2 .07.46 0 .94 0 1.34-.08s1.46-.1 1.77-.1c.9 0 1.8.09 2.69.07.22 0 .32-.08.64-.08h.9c.22 0 .44 0 .44-.41A.68.68 0 0 0 16 33h-.86c-.34 0-.28.09-.52.1-1 0-1.92-.12-2.81-.1-.41 0-1.7.14-2.81.16zM52 25.8c-.37.12-1 .42-1.32.49s-.5.14-.7.21a.82.82 0 0 0-.22.9c.09.28.19.25.54.14l2-.67c.75-.24 1.53-.37 2.28-.61.18-.06.24-.15.51-.24s.58-.13.76-.19.37-.12.24-.5a.69.69 0 0 0-.62-.55l-.72.2c-.28.11-.21.16-.41.22-.77.27-1.56.36-2.34.6zM25.85 11.19c.18.56.26 1.13.43 1.66.12.38.62 1.48.71 1.74.24.75.37 1.53.61 2.28.06.18.15.24.24.51s.16.62.16.76.12.37.5.24a.69.69 0 0 0 .55-.62s-.15-.58-.2-.73-.16-.21-.22-.4c-.27-.85-.37-1.64-.61-2.39a15.33 15.33 0 0 1-.66-1.54c-.1-.3-.23-.81-.29-1.13s-.14-.5-.21-.7a.82.82 0 0 0-.9-.22c-.25.09-.22.19-.11.54zM1.72 34.3l1.07.06c.24 0 .86-.07 1.09-.06.06 0 .37.07.61.08a.43.43 0 0 0 .28-.06 2.25 2.25 0 0 0 .13-.64c0-.35 0-.4-.31-.41H2.7l-1-.06a7.16 7.16 0 0 0-.76.06 4.59 4.59 0 0 1-.61 0c-.28 0-.29.29-.3.5a1.24 1.24 0 0 0 .12.53.57.57 0 0 0 .32.06c.07.02.89-.07 1.25-.06zM1.31 24.44c.14 0 2.59.75 2.83.88s4.61 1.33 4.7 1.34a1.3 1.3 0 0 0 .27-.78c0-.31-.07-.34-.17-.37S7.46 25.12 7 25s-2.44-.85-2.55-.89a15.33 15.33 0 0 0-3-.84c-.13 0-.15.27-.16.42a1.32 1.32 0 0 0 .02.75zM9.9 39.51c-.12 0-1.89.72-2.22.79-.68.16-3.68.94-3.68.94-.47.13-.94.33-1.43.47l-1.12.37a.42.42 0 0 0-.39.33 1.38 1.38 0 0 0 .62.84 6 6 0 0 0 1.44-.46 15.56 15.56 0 0 1 1.5-.49c.47-.09 2.74-.72 3.46-.9a19.14 19.14 0 0 0 2.11-.87.79.79 0 0 0 .1-.53.48.48 0 0 0-.39-.49zM40.14 12.76a1.37 1.37 0 0 0 .55.07c.08 0 1-2.41 1.21-2.9s.43-1.06.57-1.42c.07-.18.24-.39.32-.61a.47.47 0 0 0 .06-.4 2.88 2.88 0 0 0-.77-.5c-.24 0-.66.77-.73 1-.35 1-.54 1.3-.71 1.76s-.63 1.46-.81 1.92a1.89 1.89 0 0 0-.18.78 2 2 0 0 0 .49.3zM43.2 6.11c.2.07.39-.35.49-.61.43-1.15 1-3.3 1-3.43a.21.21 0 0 0-.15-.29 2.82 2.82 0 0 0-.46-.12c-.29-.06-.54-.1-.6 0-.24.64-.52 2.17-.77 2.84-.11.3-.24.59-.34.87a.45.45 0 0 0 0 .35 6.4 6.4 0 0 0 .83.39zM10.75 27.13c.71.25 3.43 1 3.74 1.1a.52.52 0 0 0 .38 0 6.06 6.06 0 0 0 .34-.77.86.86 0 0 0-.7-.5c-1.27-.44-.25-.13-1.43-.5-.52-.16-1.85-.48-2-.53a.22.22 0 0 0-.31.15 2.6 2.6 0 0 0-.11.46c-.04.28-.07.53.09.59zM18.17 13.47c.3.39.44.71.74 1.1a1.89 1.89 0 0 0 .57.56 2 2 0 0 0 .52-.25 1.37 1.37 0 0 0 .35-.43 2.1 2.1 0 0 0-.35-.61c-.12-.15-.56-.77-.84-1.14L17.81 11c-.12-.15-.2-.41-.35-.59a.47.47 0 0 0-.31-.26 2.88 2.88 0 0 0-.79.41c-.21.16.26.94.4 1.12.64.86 1.32 1.68 1.41 1.79zM15.07 9.15a.45.45 0 0 0 .3.17 6.41 6.41 0 0 0 .7-.46c.17-.13-.09-.51-.26-.74-.75-1-1.51-1.92-1.6-2a.21.21 0 0 0-.33 0 2.82 2.82 0 0 0-.34.33c-.21.22-.37.41-.27.53.42.48 1.62 1.93 1.8 2.17zM23.89 4.81c.11.37.26 1.09.32 1.31s.21.56.26.71c.15.52.17.9.32 1.42a2.27 2.27 0 0 0 .34.81 1.86 1.86 0 0 0 .57 0 1.27 1.27 0 0 0 .48-.28A2.5 2.5 0 0 0 26 8c-.06-.2-.26-1-.39-1.5 0-.13-.2-.43-.25-.64-.11-.39-.22-1.1-.38-1.65s-.31-1.22-.43-1.62c-.04-.25-.03-.59-.11-.79a.56.56 0 0 0-.2-.4 2.65 2.65 0 0 0-.89.07c-.25.07-.08 1.06 0 1.29.31 1.12.39 1.53.54 2.05zM32.53 4.64a.52.52 0 0 0 .13.35 6.18 6.18 0 0 0 .84.08.86.86 0 0 0 .26-.82V2.3c0-.54-.12-1.91-.12-2.06a.22.22 0 0 0-.28-.24 2.58 2.58 0 0 0-.47 0c-.3 0-.54.09-.55.27 0 .75.24 2.51.22 3.3 0 .43-.02.74-.03 1.07zM6 14.82c.3.2.58.39.88.57l1.77 1.15c.22.15.71.56.82.63a.67.67 0 0 0 .53-.38.74.74 0 0 0 .2-.56 1.17 1.17 0 0 0-.4-.44c-.3-.2-1.77-1.14-2.23-1.43s-.7-.47-.88-.6-.37-.14-.46-.12a2.26 2.26 0 0 0-.43.55c-.18.26-.06.45.2.63zM56.44 31.95a2.91 2.91 0 0 0-.06-.47c-.06-.29-.12-.54-.27-.53-.68 0-2.15.39-2.86.41h-.94a.45.45 0 0 0-.31.15 6.58 6.58 0 0 0 0 .84c0 .21.47.23.76.22 1.22 0 3.37-.38 3.52-.39a.21.21 0 0 0 .16-.23zM33.75 6.44a2.09 2.09 0 0 0-.65-.1c-.35 0-.4.05-.4.36s.09 1.27.07 1.57.05 1.77 0 2.26 0 2.33 0 2.79v1a.52.52 0 0 0 .13.35 6.18 6.18 0 0 0 .84.08A.86.86 0 0 0 34 14c0-.52-.08-2-.12-3V9.85c0-.36-.12-2.3-.12-2.4V6.8a.48.48 0 0 0-.01-.36zM11.64 18.49l.84.66c.37.27.72.59 1.08.84l1.77 1.22A13.65 13.65 0 0 0 17 22.39c.63.37 2 1.53 2.2 1.54a1.18 1.18 0 0 0 .69-.44.4.4 0 0 0 0-.36 18.54 18.54 0 0 0-2.38-1.8c-.42-.27-.81-.57-1.22-.86s-1.53-1.11-1.9-1.33a12.89 12.89 0 0 1-1.13-.88 5 5 0 0 0-1.1-.83 1.39 1.39 0 0 0-.8.63.4.4 0 0 0 .28.43zM17.59 37c-1.29.39-2.59.84-3.77 1.24-.51.18-1.82.76-1.92.76a.22.22 0 0 0-.16.3 2.56 2.56 0 0 0 .19.44c.14.27.26.49.42.44.72-.22 1.28-.59 2-.8s2.27-.8 3-1l1-.28a.52.52 0 0 0 .29-.24 6 6 0 0 0-.2-.86.86.86 0 0 0-.85 0z"/>
</svg>
